<?xml version="1.0" standalone="no"?>
<!DOCTYPE svg PUBLIC "-//W3C//DTD SVG 20010904//EN"
 "http://www.w3.org/TR/2001/REC-SVG-20010904/DTD/svg10.dtd">
<svg version="1.0" xmlns="http://www.w3.org/2000/svg"
 width="593.000000pt" height="593.000000pt" viewBox="0 0 593.000000 593.000000"
 preserveAspectRatio="xMidYMid meet">
<metadata>
Created by potrace 1.14, written by Peter Selinger 2001-2017
</metadata>
<g transform="translate(0.000000,593.000000) scale(0.100000,-0.100000)"
fill="#000000" stroke="none">
<path d="M2425 5837 c-66 -69 -119 -148 -132 -199 -11 -43 -7 -173 6 -208 7
-19 44 -100 82 -180 38 -80 78 -179 88 -220 27 -104 22 -249 -10 -345 -13 -38
-24 -72 -24 -75 -1 -3 -7 -23 -13 -46 -10 -35 -19 -84 -21 -119 -2 -19 -47 40
-73 95 -24 48 -37 90 -53 165 -2 11 -6 49 -9 84 -13 158 -38 239 -90 298 -42
48 -133 99 -196 109 -19 3 -45 9 -57 14 -38 16 -33 -3 14 -55 46 -52 74 -98
100 -169 18 -47 25 -206 13 -263 -5 -21 -12 -58 -15 -83 -4 -24 -9 -48 -11
-52 -3 -4 -5 -34 -6 -68 l-2 -61 -40 44 c-43 46 -149 137 -159 137 -4 0 -27
13 -53 29 -47 30 -198 89 -244 96 -33 5 -127 31 -165 45 -16 6 -32 12 -35 12
-28 2 -139 77 -195 133 -71 70 -123 158 -140 234 -9 43 -18 29 -40 -64 -17
-77 -20 -179 -6 -237 11 -46 53 -119 89 -156 32 -33 121 -94 207 -142 33 -19
62 -37 63 -42 2 -4 8 -8 14 -8 13 0 91 -63 136 -110 80 -83 114 -151 166 -326
19 -66 42 -133 50 -149 22 -43 5 -43 -71 -4 -68 35 -164 121 -229 204 -74 94
-128 145 -183 173 -81 39 -186 37 -291 -6 -71 -29 -74 -30 -45 -37 132 -31
180 -54 252 -121 59 -56 108 -136 153 -250 17 -43 43 -98 57 -122 13 -24 22
-46 20 -49 -3 -3 -21 0 -39 6 -61 19 -92 23 -208 25 -67 2 -135 -3 -162 -10
-27 -7 -48 -11 -48 -9 0 2 -39 -10 -87 -26 -49 -17 -121 -39 -162 -50 -190
-51 -371 -20 -506 86 -22 17 -45 35 -52 38 -16 10 39 -143 72 -199 53 -91 129
-147 235 -174 38 -10 173 -13 340 -6 41 1 87 -4 165 -19 77 -15 207 -79 255
-126 45 -43 169 -145 199 -162 l34 -21 -34 -12 c-41 -14 -196 -11 -259 4 -25
6 -85 25 -135 42 -49 17 -106 34 -125 37 -131 25 -257 -36 -349 -170 -36 -54
-38 -62 -10 -47 72 39 217 53 309 30 63 -16 143 -58 252 -133 51 -36 103 -68
116 -71 12 -4 22 -11 22 -15 0 -7 -66 -31 -87 -32 -5 0 -15 -6 -23 -14 -8 -7
-26 -16 -40 -20 -41 -12 -161 -100 -220 -160 -65 -67 -61 -62 -128 -147 -29
-36 -80 -91 -113 -122 -59 -54 -186 -125 -232 -130 -13 -1 -28 -5 -33 -9 -6
-3 -59 -5 -117 -4 l-106 2 23 -22 c47 -43 155 -111 202 -127 109 -36 225 -21
322 40 29 19 57 34 62 34 6 0 10 4 10 8 0 4 15 16 33 27 17 10 38 25 45 32 17
17 124 79 171 100 102 44 279 62 381 38 42 -10 122 -19 177 -19 29 -1 53 -4
53 -8 0 -3 -23 -27 -51 -52 -49 -44 -171 -110 -220 -120 -13 -2 -31 -7 -39
-10 -8 -3 -28 -8 -45 -11 -55 -11 -114 -30 -165 -52 -103 -47 -164 -137 -176
-263 -2 -30 -7 -64 -9 -75 -2 -11 0 -27 5 -35 6 -9 10 -10 10 -3 0 20 108 130
154 157 53 31 123 55 179 63 78 10 365 9 359 -2 -3 -5 -21 -30 -40 -54 -88
-116 -155 -307 -167 -473 -20 -281 -124 -463 -320 -563 l-48 -24 29 -7 c16 -5
74 -8 129 -7 78 0 113 5 159 23 123 47 171 109 275 358 22 51 54 118 73 149
38 63 146 183 165 183 7 0 13 3 13 8 0 8 50 35 184 97 54 25 111 54 127 66
l29 20 0 -25 c0 -78 -85 -226 -203 -351 -106 -113 -137 -166 -144 -252 -5 -57
-1 -81 17 -133 19 -54 75 -160 85 -160 1 0 2 15 2 33 -1 42 9 105 22 140 6 15
7 27 3 27 -4 0 -2 4 3 8 6 4 19 25 30 47 31 62 135 158 237 219 51 30 111 68
132 85 21 17 39 31 40 31 0 0 0 -48 -1 -107 -1 -60 3 -130 8 -158 5 -27 11
-59 13 -70 9 -46 61 -174 101 -249 121 -225 135 -409 45 -593 -21 -43 -37 -79
-36 -81 2 -1 36 15 76 35 154 80 239 199 244 343 2 62 -14 177 -43 310 -8 39
-6 211 4 250 3 14 8 36 11 49 8 39 53 128 104 205 26 39 59 93 73 120 22 41
27 46 32 30 4 -10 11 -30 17 -44 14 -34 19 -205 8 -255 -5 -22 -12 -56 -15
-75 -3 -19 -10 -52 -14 -72 -15 -66 -5 -177 21 -226 31 -62 94 -120 177 -165
l69 -37 -33 67 c-41 83 -47 107 -50 204 -2 81 20 172 63 254 52 100 82 167 98
218 l17 55 39 -77 c76 -150 204 -277 373 -373 273 -156 373 -301 384 -562 1
-24 37 27 73 104 90 193 63 328 -100 502 -116 123 -134 143 -164 186 -36 52
-92 174 -103 222 -4 19 -9 105 -10 190 -2 85 -4 160 -5 165 -6 27 4 23 50 -21
64 -60 117 -145 160 -254 18 -47 40 -94 47 -106 7 -11 11 -22 9 -25 -2 -2 15
-28 38 -58 45 -60 120 -105 191 -116 68 -11 178 -5 192 9 3 3 -10 11 -28 19
-55 23 -133 91 -172 149 -52 79 -80 170 -93 303 -9 97 -12 120 -25 170 -6 28
-16 56 -22 63 -16 20 10 14 52 -12 55 -35 142 -76 161 -76 9 0 20 -4 26 -9 5
-5 45 -17 89 -26 72 -15 182 -19 370 -13 117 4 266 -33 348 -88 51 -33 129
-110 161 -158 24 -35 32 -34 28 5 -1 3 -2 26 -3 50 -2 67 -26 164 -53 217 -24
47 -92 118 -136 142 -28 15 -127 50 -160 56 -167 33 -322 95 -409 164 -62 49
-107 105 -186 230 -19 30 -43 66 -54 80 -27 34 -11 41 57 23 74 -19 165 -62
227 -108 202 -146 282 -171 411 -126 43 16 184 103 184 115 0 1 -42 3 -92 3
-174 1 -282 64 -424 246 -31 40 -83 97 -116 127 l-59 55 74 2 c113 2 234 29
337 76 45 21 171 96 180 107 13 17 160 108 205 127 125 54 266 62 390 23 39
-12 76 -27 83 -32 20 -17 14 1 -19 50 -50 74 -145 161 -207 190 -49 23 -69 27
-147 26 -78 -1 -106 -7 -215 -44 -69 -23 -129 -43 -135 -44 -5 -1 -14 -4 -20
-8 -17 -10 -125 -21 -206 -21 -90 0 -184 26 -300 83 -43 21 -92 41 -109 45
-40 9 -38 18 8 39 71 32 161 43 330 40 172 -2 211 4 276 44 66 41 107 97 148
205 27 69 26 80 -8 49 -34 -31 -108 -70 -167 -87 -54 -16 -164 -21 -216 -11
-41 9 -135 36 -156 46 -35 16 -128 41 -175 47 -25 3 -48 8 -52 12 -5 4 20 25
55 48 75 50 155 127 212 208 43 60 115 194 115 214 0 17 79 182 107 226 39 59
131 147 185 177 66 37 155 65 212 67 30 1 9 15 -64 44 -83 33 -118 40 -200 41
-143 3 -232 -60 -409 -293 -44 -58 -115 -123 -181 -166 -75 -48 -123 -68 -200
-84 -52 -10 -76 -14 -160 -26 -19 -3 -52 -9 -72 -14 -21 -5 -38 -7 -38 -5 0 3
11 21 24 42 38 61 124 132 252 209 122 74 174 114 174 133 0 5 4 10 8 10 12 0
40 65 50 115 11 55 9 87 -14 213 -6 30 -24 46 -24 21 0 -24 -61 -137 -97 -178
-69 -81 -210 -153 -348 -177 -21 -4 -77 -22 -124 -40 -82 -33 -107 -36 -83
-12 7 7 12 20 12 30 0 10 5 18 10 18 6 0 9 3 8 8 0 4 1 14 5 22 57 149 69 343
32 515 -60 279 -24 460 121 615 l64 67 -48 -9 c-106 -20 -132 -27 -197 -61
-132 -66 -194 -178 -210 -377 -15 -177 -33 -263 -77 -360 -39 -87 -90 -147
-208 -250 -41 -35 -85 -76 -97 -90 -21 -23 -23 -24 -24 -5 -5 96 18 182 81
311 28 55 50 106 50 112 0 7 4 12 8 12 15 0 40 125 36 175 -6 69 -47 146 -115
216 -33 34 -62 60 -64 57 -3 -3 -1 -18 5 -34 16 -47 18 -155 3 -217 -12 -53
-56 -155 -72 -167 -4 -3 -18 -20 -31 -39 -13 -19 -50 -61 -83 -95 -32 -34 -73
-82 -91 -108 l-32 -47 -18 88 c-35 173 -110 308 -254 460 -162 170 -226 304
-224 471 1 91 3 108 15 128 5 6 6 12 3 12 -3 0 -1 11 4 25 5 14 6 25 2 25 -4
0 -38 -33 -77 -73z"/>
</g>
</svg>
